<?xml version="1.0" encoding="UTF-8"?>
<svg width="159px" height="159px" viewBox="0 0 159 159" version="1.1" xmlns="http://www.w3.org/2000/svg" xmlns:xlink="http://www.w3.org/1999/xlink">
    <!-- Generator: Sketch 48.2 (47327) - http://www.bohemiancoding.com/sketch -->
    <title>Page 1</title>
    <desc>Created with Sketch.</desc>
    <defs></defs>
    <g id="Desktop-HD" stroke="none" stroke-width="1" fill="none" fill-rule="evenodd" transform="translate(-626.000000, -197.000000)">
        <g id="Page-1" transform="translate(626.000000, 197.000000)" stroke="#BEBDBE">
            <path d="M79.2564,0.4995 C57.6194,0.4995 38.5794,8.5065 23.8664,23.4355 C8.7214,38.7985 0.5004,58.7035 0.5004,79.4755 C0.5004,100.4625 8.5044,119.9345 23.6514,135.0825 C38.7964,150.2275 58.4844,158.4475 79.2564,158.4475 C100.0284,158.4475 120.1504,150.2275 135.7284,134.8655 C150.4414,120.3675 158.2304,101.1115 158.2304,79.4755 C158.2304,58.0555 150.4414,38.5815 135.5114,23.6515 C120.3664,8.5065 100.8934,0.4995 79.2564,0.4995 Z" id="Stroke-1" stroke-dasharray="2.989,2.989"></path>
            <path d="M79.4732,14.7807 C97.2152,14.7807 113.0102,21.4877 125.3442,33.8207 C137.4592,45.9387 143.9512,61.9487 143.9512,79.4747 C143.9512,97.2177 137.6752,112.7957 125.5592,124.6977 C112.7932,137.2457 96.3492,143.9527 79.4732,143.9527 C62.3802,143.9527 46.3682,137.2457 34.0352,124.9137 C21.7022,112.5787 14.7792,96.3517 14.7792,79.4747 C14.7792,62.3827 21.7022,46.1547 34.0352,33.6037 C46.1522,21.2727 61.7312,14.7807 79.4732,14.7807 Z" id="Stroke-3" stroke-dasharray="2.984,2.984"></path>
            <path d="M77.1265,67.0502 L78.4545,66.3532 C78.2095,65.9062 77.9555,65.4752 77.6925,65.0582" id="Stroke-5"></path>
            <path d="M75.916,62.6205 C71.371,57.2115 64.881,54.9805 57.547,54.9805 C44.688,54.9805 34.453,64.0785 34.453,79.4745 C34.453,95.1345 44.076,103.9695 57.986,103.9695 C65.855,103.9695 72.703,100.1595 77.091,94.1595" id="Stroke-7" stroke-dasharray="3.014,3.014"></path>
            <path d="M77.9429,92.9194 C78.2129,92.5004 78.4719,92.0724 78.7179,91.6354 L77.3809,90.9544" id="Stroke-9"></path>
            <path d="M75.0069,89.7465 L71.4439,87.9335" id="Stroke-11" stroke-dasharray="2.665,2.665"></path>
            <path d="M70.2573,87.3286 L68.9203,86.6486 C68.7183,87.1326 68.5073,87.5856 68.2863,88.0096" id="Stroke-13"></path>
            <path d="M66.6714,90.4145 C64.6764,92.6945 62.1594,93.4715 59.2104,93.4715 C51.9484,93.4715 48.6254,87.4355 48.6254,79.4755 C48.6254,71.5145 51.4244,65.4775 59.2104,65.4775 C60.9184,65.4775 64.0174,66.2305 66.4334,69.3415" id="Stroke-15" stroke-dasharray="2.9,2.9"></path>
            <path d="M67.2529,70.5385 C67.5009,70.9475 67.7359,71.3895 67.9579,71.8635 L69.2859,71.1665" id="Stroke-17"></path>
            <path d="M71.8994,69.7944 L75.8194,67.7354" id="Stroke-19" stroke-dasharray="2.952,2.952"></path>
            <path d="M122.6856,67.0502 L124.0136,66.3532 C123.7686,65.9062 123.5146,65.4752 123.2516,65.0582" id="Stroke-21"></path>
            <path d="M121.4751,62.6205 C116.9291,57.2115 110.4401,54.9805 103.1071,54.9805 C90.2471,54.9805 80.0111,64.0785 80.0111,79.4745 C80.0111,95.1345 89.6351,103.9695 103.5441,103.9695 C111.4121,103.9695 118.2611,100.1595 122.6491,94.1595" id="Stroke-23" stroke-dasharray="3.014,3.014"></path>
            <path d="M123.501,92.9194 C123.771,92.5004 124.03,92.0724 124.276,91.6354 L122.939,90.9544" id="Stroke-25"></path>
            <path d="M120.565,89.7465 L117.002,87.9335" id="Stroke-27" stroke-dasharray="2.665,2.665"></path>
            <path d="M115.8154,87.3286 L114.4784,86.6486 C114.2764,87.1326 114.0654,87.5856 113.8444,88.0096" id="Stroke-29"></path>
            <path d="M112.2295,90.4145 C110.2345,92.6945 107.7165,93.4715 104.7685,93.4715 C97.5075,93.4715 94.1825,87.4355 94.1825,79.4755 C94.1825,71.5145 96.9825,65.4775 104.7685,65.4775 C106.4765,65.4775 109.5755,66.2305 111.9915,69.3415" id="Stroke-31" stroke-dasharray="2.9,2.9"></path>
            <path d="M112.812,70.5385 C113.06,70.9475 113.295,71.3895 113.517,71.8635 L114.845,71.1665" id="Stroke-33"></path>
            <path d="M117.4585,69.7944 L121.3785,67.7354" id="Stroke-35" stroke-dasharray="2.952,2.952"></path>
        </g>
    </g>
</svg>