<?xml version="1.0" encoding="UTF-8"?>
<svg width="46px" height="46px" viewBox="0 0 46 46" version="1.1" xmlns="http://www.w3.org/2000/svg" xmlns:xlink="http://www.w3.org/1999/xlink">
    <!-- Generator: Sketch 55.2 (78181) - https://sketchapp.com -->
    <title>by</title>
    <desc>Created with Sketch.</desc>
    <g id="Page-1" stroke="none" stroke-width="1" fill="none" fill-rule="evenodd">
        <g id="Desktop-Home-2" transform="translate(-896.000000, -2399.000000)" fill-rule="nonzero">
            <g id="Header" transform="translate(0.000000, 2368.000000)">
                <g id="by" transform="translate(896.000000, 31.000000)">
                    <circle id="Oval" cx="22.5" cy="22.5" r="20.5"></circle>
                    <path d="M22.9590312,0 C29.4191562,0 34.8687187,2.21734375 39.3048437,6.65346875 C43.7668437,11.1169062 46,16.56575 46,23 C46,29.4622812 43.8085312,34.842125 39.4270312,39.14025 C34.7724062,43.7136562 29.2833125,46 22.9590312,46 C16.7425625,46 11.3490625,43.74025 6.77709375,39.2221875 C2.25975,34.704125 0,29.2976875 0,23 C0,16.7030312 2.25975,11.2541875 6.77709375,6.6541875 C11.2132187,2.21734375 16.606,0 22.9590312,0 Z M23.0409687,4.148625 C17.8113437,4.148625 13.3895937,5.98359375 9.775,9.65209375 C6.023125,13.4859062 4.14790625,17.9356875 4.14790625,23.0007187 C4.14790625,28.0937812 6.00946875,32.5025937 9.73259375,36.2242812 C13.4564375,39.9488437 17.8918437,41.8096875 23.0395312,41.8096875 C28.1591875,41.8096875 32.6233437,39.9359062 36.429125,36.1833125 C40.0437187,32.706 41.8506562,28.3115625 41.8506562,22.9992812 C41.8506562,17.7696562 40.0156875,13.3213125 36.3479062,9.651375 C32.6794062,5.982875 28.2432812,4.148625 23.0409687,4.148625 Z M29.2020937,17.2909687 L29.2020937,26.6958125 L26.5743437,26.6958125 L26.5743437,37.866625 L19.4270937,37.866625 L19.4270937,26.6965312 L16.7993437,26.6965312 L16.7993437,17.2909687 C16.7993437,16.8798437 16.9430937,16.53125 17.229875,16.24375 C17.5180937,15.9569687 17.8674062,15.8125 18.2770937,15.8125 L27.7243437,15.8125 C28.1074375,15.8125 28.4502812,15.95625 28.7507187,16.24375 C29.0504375,16.53125 29.2020937,16.8805625 29.2020937,17.2909687 Z M19.7958125,11.3770937 C19.7958125,9.21509375 20.8631562,8.13265625 23,8.13265625 C25.1368437,8.13265625 26.2034687,9.21365625 26.2034687,11.3770937 C26.2034687,13.5125 25.1354062,14.5805625 23,14.5805625 C20.8645937,14.5805625 19.7958125,13.5125 19.7958125,11.3770937 Z" id="Shape" fill="#FFFFFF"></path>
                </g>
            </g>
        </g>
    </g>
</svg>