<?xml version="1.0" encoding="UTF-8"?>
<svg width="68px" height="68px" viewBox="0 0 68 68" version="1.1" xmlns="http://www.w3.org/2000/svg" xmlns:xlink="http://www.w3.org/1999/xlink">
    <!-- Generator: Sketch 55.2 (78181) - https://sketchapp.com -->
    <title>g45</title>
    <desc>Created with Sketch.</desc>
    <g id="Page-1" stroke="none" stroke-width="1" fill="none" fill-rule="evenodd">
        <g id="Desktop-Home-2" transform="translate(-253.000000, -2398.000000)" fill="#FFFFFF">
            <g id="Header" transform="translate(0.000000, 2368.000000)">
                <g id="g45" transform="translate(253.000000, 30.000000)">
                    <path d="M33.9532635,0 C24.6253022,0 16.4168681,3.44726171 10.0735966,9.87399612 C3.5444534,16.4884899 0,25.0578267 0,34.0005365 C0,43.0355165 3.45098039,51.4192398 9.98119796,57.9403904 C16.5103411,64.460468 24.9991942,68 33.9532635,68 C42.9073328,68 51.5831319,64.460468 58.2992211,57.8470471 C64.6424926,51.6059263 68,43.3155462 68,34.0005365 C68,24.77887 64.6424926,16.3951467 58.2057481,9.96733934 C51.6766049,3.44726171 43.2812248,0 33.9532635,0 Z M34.0467365,6.14885057 C41.6954069,6.14885057 48.5049691,9.03605295 53.8221864,14.3458874 C59.0448563,19.5623787 61.8436745,26.4558292 61.8436745,34.0005365 C61.8436745,41.6385869 59.1383293,48.345351 53.914585,53.4695719 C48.4104217,58.8716767 41.3215149,61.759952 34.0456621,61.759952 C26.6763363,61.759952 19.7733011,58.8727496 14.4571582,53.5629152 C9.13994091,48.2520078 6.15525114,41.2662869 6.15525114,34.0005365 C6.15525114,26.6414427 9.13994091,19.6557219 14.4571582,14.2525442 C19.6809025,8.94378264 26.3980661,6.14885057 34.0467365,6.14885057 Z" id="path47"></path>
                    <path d="M33.8866119,27.874504 C31.97185,24.3876793 28.7049882,23 24.912904,23 C19.3932553,23 15,26.8991759 15,33.5 C15,40.2119239 19.1301092,44 25.101171,44 C28.9317644,44 32.1975566,41.8997863 34,38.7131448 L29.7939421,36.5755418 C28.8547461,38.8253128 27.4288368,39.5004578 25.6263934,39.5004578 C22.5092895,39.5004578 21.0833802,36.9131143 21.0833802,33.5010683 C21.0833802,30.0890223 22.2846526,27.5006104 25.6263934,27.5006104 C26.5270803,27.5006104 28.3295237,27.9888086 29.3810382,30.2375114 L33.8866119,27.874504 Z" id="path49"></path>
                    <path d="M52.8876816,27.874504 C50.97185,24.3876793 47.7060579,23 43.9139737,23 C38.394325,23 34,26.8991759 34,33.5 C34,40.2119239 38.1311789,44 44.101171,44 C47.9317644,44 51.1975566,41.8997863 53,38.7131448 L48.7939421,36.5755418 C47.8558158,38.8253128 46.4288368,39.5004578 44.6263934,39.5004578 C41.5103592,39.5004578 40.0823106,36.9131143 40.0823106,33.5010683 C40.0823106,30.0890223 41.2846526,27.5006104 44.6263934,27.5006104 C45.5270803,27.5006104 47.3295237,27.9888086 48.3821079,30.2375114 L52.8876816,27.874504 Z" id="path51"></path>
                </g>
            </g>
        </g>
    </g>
</svg>