<?xml version="1.0" encoding="UTF-8"?>
<svg width="304px" height="73px" viewBox="0 0 304 73" version="1.1" xmlns="http://www.w3.org/2000/svg" xmlns:xlink="http://www.w3.org/1999/xlink">
    <!-- Generator: Sketch 54.1 (76490) - https://sketchapp.com -->
    <title>cc.logo.white</title>
    <desc>Created with Sketch.</desc>
    <g id="Page-1" stroke="none" stroke-width="1" fill="none" fill-rule="evenodd">
        <g id="Desktop-HD" transform="translate(-280.000000, -13.000000)" fill="#FFFFFF">
            <g id="cc.logo.white" transform="translate(280.000000, 13.000000)">
                <path d="M94.282,49.116 C91.523,44.086 86.817,42.084 81.354,42.084 C73.403,42.084 67.074,47.709 67.074,57.23 C67.074,66.912 73.024,72.375 81.624,72.375 C87.141,72.375 91.847,69.346 94.443,64.748 L88.385,61.665 C87.032,64.911 84.977,65.885 82.381,65.885 C77.891,65.885 75.836,62.153 75.836,57.231 C75.836,52.308 77.567,48.576 82.381,48.576 C83.679,48.576 86.276,49.279 87.79,52.525 L94.282,49.116 Z" id="path15"></path>
                <path d="M109.746,48.575 C114.56,48.575 116.616,52.307 116.616,56.905 C116.616,62.152 114.56,65.884 109.746,65.884 C104.932,65.884 102.877,62.152 102.877,57.23 C102.877,52.308 104.932,48.575 109.746,48.575 Z M109.746,42.084 C100.767,42.084 94.439,47.547 94.439,57.23 C94.439,66.912 100.767,72.375 109.746,72.375 C118.725,72.375 125.054,66.912 125.054,57.23 C125.054,47.548 118.725,42.084 109.746,42.084 Z" id="path17"></path>
                <path d="M126.783,71.617 L135.221,71.617 L135.221,53.714 C135.221,51.118 136.303,48.9 139.71,48.9 C142.956,48.9 143.821,50.793 143.821,53.606 L143.821,71.618 L152.259,71.618 L152.259,53.93 C152.259,51.009 153.719,48.9 156.532,48.9 C159.723,48.9 160.859,50.739 160.859,54.796 L160.859,71.617 L169.297,71.617 L169.297,49.657 C169.297,43.058 163.239,42.084 160.426,42.084 C157.072,42.084 153.935,43.112 151.177,45.924 C149.283,43.382 146.85,42.084 143.55,42.084 C140.954,42.084 137.384,42.841 135.22,45.384 L135.22,42.842 L126.782,42.842 L126.782,71.617 L126.783,71.617 Z" id="path19"></path>
                <path d="M171.997,71.617 L180.435,71.617 L180.435,53.714 C180.435,51.118 181.517,48.9 184.924,48.9 C188.17,48.9 189.035,50.793 189.035,53.606 L189.035,71.618 L197.473,71.618 L197.473,53.93 C197.473,51.009 198.933,48.9 201.745,48.9 C204.936,48.9 206.073,50.739 206.073,54.796 L206.073,71.617 L214.511,71.617 L214.511,49.657 C214.511,43.058 208.452,42.084 205.64,42.084 C202.286,42.084 199.15,43.112 196.391,45.924 C194.498,43.382 192.064,42.084 188.764,42.084 C186.168,42.084 182.598,42.841 180.434,45.384 L180.434,42.842 L171.996,42.842 L171.996,71.617 L171.997,71.617 Z" id="path21"></path>
                <path d="M231.544,48.575 C236.357,48.575 238.413,52.307 238.413,56.905 C238.413,62.152 236.357,65.884 231.544,65.884 C226.73,65.884 224.674,62.152 224.674,57.23 C224.674,52.308 226.73,48.575 231.544,48.575 Z M231.544,42.084 C222.565,42.084 216.236,47.547 216.236,57.23 C216.236,66.912 222.564,72.375 231.544,72.375 C240.523,72.375 246.852,66.912 246.852,57.23 C246.852,47.548 240.523,42.084 231.544,42.084 Z" id="path23"></path>
                <path d="M249.122,71.617 L257.56,71.617 L257.56,53.714 C257.56,51.118 258.642,48.9 262.05,48.9 C265.295,48.9 266.16,50.793 266.16,53.606 L266.16,71.618 L274.598,71.618 L274.598,50.36 C274.598,46.033 272.704,42.084 265.889,42.084 C263.293,42.084 259.723,42.841 257.559,45.384 L257.559,42.842 L249.121,42.842 L249.121,71.617 L249.122,71.617 Z" id="path25"></path>
                <path d="M302.774,46.25 C298.879,43.654 294.499,42.085 290.063,42.085 C284.22,42.085 277.892,44.898 277.892,52.146 C277.892,62.369 294.93,58.799 294.93,63.289 C294.93,65.886 291.74,66.21 290.332,66.21 C286.492,66.21 283.842,64.642 281.245,62.153 L275.998,66.696 C280.218,70.591 283.787,72.376 290.062,72.376 C296.335,72.376 303.043,69.671 303.043,62.099 C303.043,51.335 286.005,55.392 286.005,50.47 C286.005,49.01 287.519,48.253 289.628,48.253 C292.279,48.253 295.903,49.335 297.579,51.336 L302.774,46.25 Z" id="path27"></path>
                <path d="M94.282,16.011 C91.523,10.981 86.817,8.979 81.354,8.979 C73.403,8.979 67.074,14.604 67.074,24.124 C67.074,33.806 73.024,39.27 81.624,39.27 C87.141,39.27 91.847,36.241 94.443,31.643 L88.385,28.56 C87.032,31.806 84.977,32.779 82.381,32.779 C77.891,32.779 75.836,29.047 75.836,24.124 C75.836,19.202 77.567,15.47 82.381,15.47 C83.679,15.47 86.276,16.173 87.79,19.419 L94.282,16.011 Z" id="path29"></path>
                <path d="M96.34,38.512 L104.778,38.512 L104.778,21.852 C104.778,18.661 106.779,17.795 111.81,17.2 L112.729,17.092 L112.675,9.628 C109.7,9.845 106.617,10.926 104.778,12.657 L104.778,9.736 L96.34,9.736 L96.34,38.512 Z" id="path31"></path>
                <path d="M141.386,25.855 C141.332,16.984 137.762,8.979 127.268,8.979 C118.505,8.979 113.15,14.821 113.15,24.99 C113.15,33.103 118.343,39.27 127.268,39.27 C133.705,39.27 138.302,36.728 141.223,31.319 L134.894,28.019 C132.46,31.481 130.999,33.103 127.862,33.103 C125.158,33.103 121.642,31.372 121.588,25.855 L141.386,25.855 L141.386,25.855 Z M121.481,20.663 C121.859,16.876 124.78,15.146 127.214,15.146 C129.648,15.146 132.677,16.444 132.947,20.663 L121.481,20.663 Z" id="path33"></path>
                <path d="M160.742,26.504 C160.742,30.885 158.254,33.103 154.954,33.103 C152.898,33.103 151.005,32.129 151.005,29.858 C151.005,27.532 152.952,26.721 155.062,26.126 L160.742,24.503 L160.742,26.504 L160.742,26.504 Z M168.855,17.309 C168.801,10.818 163.879,8.979 156.036,8.979 C152.141,8.979 144.461,9.736 144.19,18.012 L152.304,18.012 C152.737,15.145 154.034,14.172 156.739,14.172 C159.011,14.172 160.742,15.091 160.742,17.255 L160.742,19.635 L157.659,20.068 C148.464,21.366 142.892,23.8 142.892,30.724 C142.892,36.241 147.003,39.27 152.52,39.27 C155.549,39.27 159.768,37.81 161.174,35.538 L161.282,35.538 C161.336,36.512 161.499,37.539 161.823,38.513 L169.612,38.513 C168.909,36.728 168.855,34.511 168.855,32.509 L168.855,17.309 L168.855,17.309 Z" id="path35"></path>
                <path d="M188.699,10.277 L183.668,10.277 L183.668,1.947 L175.23,1.947 L175.23,10.277 L171.12,10.277 L171.12,15.469 L175.23,15.469 L175.23,30.615 C175.23,34.78 176.258,39.269 183.453,39.269 C185.292,39.269 187.78,39.053 188.862,38.944 L188.862,32.291 C188.428,32.345 187.239,32.453 186.32,32.453 C184.804,32.453 183.669,31.858 183.669,29.586 L183.669,15.47 L188.7,15.47 L188.7,10.277 L188.699,10.277 Z" id="path37"></path>
                <path d="M191.876,9.736 L191.876,38.512 L200.314,38.512 L200.314,9.736 L191.876,9.736 Z M200.315,6.491 L200.315,0 L191.877,0 L191.877,6.491 L200.315,6.491 Z" id="path39"></path>
                <polygon id="polygon41" points="211.67 38.512 220.162 38.512 230.007 9.736 221.028 9.736 216.051 30.074 215.944 30.074 210.966 9.736 201.934 9.736"></polygon>
                <path d="M257.256,25.855 C257.202,16.984 253.632,8.979 243.139,8.979 C234.375,8.979 229.022,14.821 229.022,24.99 C229.022,33.103 234.213,39.27 243.139,39.27 C249.576,39.27 254.173,36.728 257.094,31.319 L250.765,28.019 C248.331,31.481 246.87,33.103 243.734,33.103 C241.03,33.103 237.513,31.372 237.46,25.855 L257.256,25.855 L257.256,25.855 Z M237.351,20.663 C237.73,16.876 240.65,15.146 243.084,15.146 C245.518,15.146 248.548,16.444 248.818,20.663 L237.351,20.663 Z" id="path43"></path>
                <g id="g45" transform="translate(0.000000, 8.000000)">
                    <path d="M31.602,0.495 C22.92,0.495 15.28,3.708 9.376,9.698 C3.299,15.863 0,23.85 0,32.185 C0,40.606 3.212,48.42 9.29,54.498 C15.367,60.575 23.268,63.874 31.602,63.874 C39.936,63.874 48.011,60.575 54.262,54.411 C60.166,48.594 63.291,40.867 63.291,32.185 C63.291,23.59 60.166,15.776 54.175,9.785 C48.098,3.708 40.284,0.495 31.602,0.495 Z M31.689,6.226 C38.808,6.226 45.146,8.917 50.095,13.866 C54.956,18.728 57.561,25.153 57.561,32.185 C57.561,39.304 55.043,45.555 50.181,50.331 C45.058,55.366 38.46,58.058 31.688,58.058 C24.829,58.058 18.404,55.367 13.456,50.418 C8.507,45.468 5.729,38.957 5.729,32.185 C5.729,25.326 8.507,18.815 13.456,13.779 C18.318,8.831 24.57,6.226 31.689,6.226 Z" id="path47"></path>
                    <path d="M31.28,26.919 C29.49,23.655 26.436,22.356 22.891,22.356 C17.731,22.356 13.624,26.006 13.624,32.185 C13.624,38.468 17.485,42.014 23.067,42.014 C26.648,42.014 29.701,40.048 31.386,37.065 L27.454,35.064 C26.576,37.17 25.243,37.802 23.558,37.802 C20.644,37.802 19.311,35.38 19.311,32.186 C19.311,28.992 20.434,26.569 23.558,26.569 C24.4,26.569 26.085,27.026 27.068,29.131 L31.28,26.919 Z" id="path49"></path>
                    <path d="M49.562,26.919 C47.771,23.655 44.718,22.356 41.173,22.356 C36.013,22.356 31.905,26.006 31.905,32.185 C31.905,38.468 35.767,42.014 41.348,42.014 C44.929,42.014 47.982,40.048 49.667,37.065 L45.735,35.064 C44.858,37.17 43.524,37.802 41.839,37.802 C38.926,37.802 37.591,35.38 37.591,32.186 C37.591,28.992 38.715,26.569 41.839,26.569 C42.681,26.569 44.366,27.026 45.35,29.131 L49.562,26.919 Z" id="path51"></path>
                </g>
            </g>
        </g>
    </g>
</svg>