<?xml version="1.0" encoding="UTF-8"?>
<svg width="262px" height="68px" viewBox="0 0 262 68" version="1.1" xmlns="http://www.w3.org/2000/svg" xmlns:xlink="http://www.w3.org/1999/xlink">
    <!-- Generator: Sketch 55.2 (78181) - https://sketchapp.com -->
    <title>Group 15</title>
    <desc>Created with Sketch.</desc>
    <g id="Page-1" stroke="none" stroke-width="1" fill="none" fill-rule="evenodd">
        <g id="Desktop-Home-2" transform="translate(-12.000000, -2289.000000)" fill="#000000">
            <g id="Header" transform="translate(0.000000, 2289.000000)">
                <g id="Group-15" transform="translate(12.000000, 0.000000)">
                    <g id="NETWORK-2" transform="translate(80.157000, 19.776000)" fill-rule="nonzero">
                        <path d="M2.84217094e-14,27.224 L2.84217094e-14,0.492 L6.191,0.492 L13.161,13.776 L15.785,19.68 L15.949,19.68 C15.8123327,18.2586596 15.6551676,16.6733421 15.4775,14.924 C15.2998324,13.1746579 15.211,11.5073413 15.211,9.922 L15.211,0.492 L20.951,0.492 L20.951,27.224 L14.76,27.224 L7.79,13.899 L5.166,8.077 L5.002,8.077 C5.13866735,9.55300738 5.29583245,11.1383249 5.4735,12.833 C5.65116756,14.5276751 5.74,16.1676587 5.74,17.753 L5.74,27.224 L2.84217094e-14,27.224 Z M27.265,27.224 L27.265,0.492 L43.993,0.492 L43.993,5.576 L33.292,5.576 L33.292,10.947 L42.394,10.947 L42.394,15.99 L33.292,15.99 L33.292,22.14 L44.403,22.14 L44.403,27.224 L27.265,27.224 Z M54.94,27.224 L54.94,5.576 L47.601,5.576 L47.601,0.492 L68.347,0.492 L68.347,5.576 L61.008,5.576 L61.008,27.224 L54.94,27.224 Z M74.907,27.224 L69.946,0.492 L76.137,0.492 L77.982,12.997 C78.1460008,14.391007 78.3236657,15.7918263 78.515,17.1995 C78.7063343,18.6071737 78.8839992,20.0216596 79.048,21.443 L79.212,21.443 C79.4853347,20.0216596 79.751832,18.6071737 80.0115,17.1995 C80.271168,15.7918263 80.5376653,14.391007 80.811,12.997 L83.681,0.492 L88.806,0.492 L91.676,12.997 C91.9493347,14.3636735 92.215832,15.7508263 92.4755,17.1585 C92.735168,18.5661737 93.0016653,19.9943261 93.275,21.443 L93.439,21.443 C93.6303343,19.9943261 93.8148324,18.573007 93.9925,17.179 C94.1701676,15.784993 94.3546657,14.391007 94.546,12.997 L96.391,0.492 L102.172,0.492 L97.416,27.224 L89.831,27.224 L87.207,15.088 C86.9883322,14.0493281 86.7901676,13.0038386 86.6125,11.9515 C86.4348324,10.8991614 86.2776674,9.88100492 86.141,8.897 L85.977,8.897 C85.8129992,9.88100492 85.6421676,10.8991614 85.4645,11.9515 C85.2868324,13.0038386 85.0886678,14.0493281 84.87,15.088 L82.369,27.224 L74.907,27.224 Z M116.727,27.716 C114.922991,27.716 113.276174,27.3948365 111.7865,26.7525 C110.296826,26.1101635 109.019005,25.1876727 107.953,23.985 C106.886995,22.7823273 106.06017,21.3200086 105.4725,19.598 C104.88483,17.8759914 104.591,15.9216776 104.591,13.735 C104.591,11.5483224 104.88483,9.60084188 105.4725,7.8925 C106.06017,6.18415813 106.886995,4.74917248 107.953,3.5875 C109.019005,2.42582753 110.296826,1.53750308 111.7865,0.9225 C113.276174,0.307496925 114.922991,1.70530257e-13 116.727,1.70530257e-13 C118.531009,1.70530257e-13 120.177826,0.307496925 121.6675,0.9225 C123.157174,1.53750308 124.434995,2.43266079 125.501,3.608 C126.567005,4.78333921 127.39383,6.22515813 127.9815,7.9335 C128.56917,9.64184188 128.863,11.5756559 128.863,13.735 C128.863,15.9216776 128.56917,17.8759914 127.9815,19.598 C127.39383,21.3200086 126.567005,22.7823273 125.501,23.985 C124.434995,25.1876727 123.157174,26.1101635 121.6675,26.7525 C120.177826,27.3948365 118.531009,27.716 116.727,27.716 Z M116.727,22.509 C118.558342,22.509 120.006995,21.7231745 121.073,20.1515 C122.139005,18.5798255 122.672,16.4410135 122.672,13.735 C122.672,11.0563199 122.139005,8.96534085 121.073,7.462 C120.006995,5.95865915 118.558342,5.207 116.727,5.207 C114.895658,5.207 113.447005,5.95865915 112.381,7.462 C111.314995,8.96534085 110.782,11.0563199 110.782,13.735 C110.782,16.4410135 111.314995,18.5798255 112.381,20.1515 C113.447005,21.7231745 114.895658,22.509 116.727,22.509 Z M133.906,27.224 L133.906,0.492 L143.541,0.492 C144.96234,0.492 146.294827,0.6286653 147.5385,0.902 C148.782173,1.1753347 149.868662,1.63316346 150.798,2.2755 C151.727338,2.91783655 152.465331,3.77199467 153.012,4.838 C153.558669,5.90400533 153.832,7.22965874 153.832,8.815 C153.832,10.7830098 153.401504,12.4024936 152.5405,13.6735 C151.679496,14.9445064 150.524674,15.8943302 149.076,16.523 L155.144,27.224 L148.379,27.224 L143.254,17.589 L139.933,17.589 L139.933,27.224 L133.906,27.224 Z M139.933,12.792 L143.049,12.792 C144.634341,12.792 145.843829,12.45717 146.6775,11.7875 C147.511171,11.11783 147.928,10.1270066 147.928,8.815 C147.928,7.50299344 147.511171,6.58733593 146.6775,6.068 C145.843829,5.54866407 144.634341,5.289 143.049,5.289 L139.933,5.289 L139.933,12.792 Z M159.039,27.224 L159.039,0.492 L165.066,0.492 L165.066,11.439 L165.23,11.439 L173.184,0.492 L179.826,0.492 L171.749,11.152 L181.302,27.224 L174.701,27.224 L168.182,15.949 L165.066,20.049 L165.066,27.224 L159.039,27.224 Z" id="NETWORK"></path>
                    </g>
                    <g id="g45">
                        <path d="M33.9532635,0 C24.6253022,0 16.4168681,3.44726171 10.0735966,9.87399612 C3.5444534,16.4884899 0,25.0578267 0,34.0005365 C0,43.0355165 3.45098039,51.4192398 9.98119796,57.9403904 C16.5103411,64.460468 24.9991942,68 33.9532635,68 C42.9073328,68 51.5831319,64.460468 58.2992211,57.8470471 C64.6424926,51.6059263 68,43.3155462 68,34.0005365 C68,24.77887 64.6424926,16.3951467 58.2057481,9.96733934 C51.6766049,3.44726171 43.2812248,0 33.9532635,0 Z M34.0467365,6.14885057 C41.6954069,6.14885057 48.5049691,9.03605295 53.8221864,14.3458874 C59.0448563,19.5623787 61.8436745,26.4558292 61.8436745,34.0005365 C61.8436745,41.6385869 59.1383293,48.345351 53.914585,53.4695719 C48.4104217,58.8716767 41.3215149,61.759952 34.0456621,61.759952 C26.6763363,61.759952 19.7733011,58.8727496 14.4571582,53.5629152 C9.13994091,48.2520078 6.15525114,41.2662869 6.15525114,34.0005365 C6.15525114,26.6414427 9.13994091,19.6557219 14.4571582,14.2525442 C19.6809025,8.94378264 26.3980661,6.14885057 34.0467365,6.14885057 Z" id="path47"></path>
                        <path d="M33.8866119,27.874504 C31.97185,24.3876793 28.7049882,23 24.912904,23 C19.3932553,23 15,26.8991759 15,33.5 C15,40.2119239 19.1301092,44 25.101171,44 C28.9317644,44 32.1975566,41.8997863 34,38.7131448 L29.7939421,36.5755418 C28.8547461,38.8253128 27.4288368,39.5004578 25.6263934,39.5004578 C22.5092895,39.5004578 21.0833802,36.9131143 21.0833802,33.5010683 C21.0833802,30.0890223 22.2846526,27.5006104 25.6263934,27.5006104 C26.5270803,27.5006104 28.3295237,27.9888086 29.3810382,30.2375114 L33.8866119,27.874504 Z" id="path49"></path>
                        <path d="M52.8876816,27.874504 C50.97185,24.3876793 47.7060579,23 43.9139737,23 C38.394325,23 34,26.8991759 34,33.5 C34,40.2119239 38.1311789,44 44.101171,44 C47.9317644,44 51.1975566,41.8997863 53,38.7131448 L48.7939421,36.5755418 C47.8558158,38.8253128 46.4288368,39.5004578 44.6263934,39.5004578 C41.5103592,39.5004578 40.0823106,36.9131143 40.0823106,33.5010683 C40.0823106,30.0890223 41.2846526,27.5006104 44.6263934,27.5006104 C45.5270803,27.5006104 47.3295237,27.9888086 48.3821079,30.2375114 L52.8876816,27.874504 Z" id="path51"></path>
                    </g>
                </g>
            </g>
        </g>
    </g>
</svg>